<?xml version="1.0" encoding="UTF-8" standalone="no"?>
<!DOCTYPE svg PUBLIC "-//W3C//DTD SVG 1.1//EN"
 "http://www.w3.org/Graphics/SVG/1.1/DTD/svg11.dtd">
<!-- Generated by graphviz version 15.0.0 (20260523.1842)
 -->
<!-- Title: CompositeCdoSnapshotRepository Pages: 1 -->
<svg width="1506pt" height="344pt"
 viewBox="0.00 0.00 1506.00 344.00" xmlns="http://www.w3.org/2000/svg" xmlns:xlink="http://www.w3.org/1999/xlink">
<g id="graph0" class="graph" transform="scale(1 1) rotate(0) translate(25.2 318.48)">
<title>CompositeCdoSnapshotRepository</title>
<polygon fill="#fffdf8" stroke="none" points="-25.2,25.2 -25.2,-318.48 1481.13,-318.48 1481.13,25.2 -25.2,25.2"/>
<!-- app -->
<g id="node1" class="node">
<title>app</title>
<path fill="#fdebd3" stroke="#4a5568" stroke-width="1.4" d="M173.67,-263.28C173.67,-263.28 45,-263.28 45,-263.28 39,-263.28 33,-257.28 33,-251.28 33,-251.28 33,-207 33,-207 33,-201 39,-195 45,-195 45,-195 173.67,-195 173.67,-195 179.67,-195 185.67,-201 185.67,-207 185.67,-207 185.67,-251.28 185.67,-251.28 185.67,-257.28 179.67,-263.28 173.67,-263.28"/>
<text xml:space="preserve" text-anchor="middle" x="109.34" y="-237.54" font-family="Architects Daughter" font-size="18.00">Application</text>
<text xml:space="preserve" text-anchor="middle" x="109.34" y="-212.04" font-family="Architects Daughter" font-size="18.00">JaVers commit</text>
</g>
<!-- composite -->
<g id="node2" class="node">
<title>composite</title>
<path fill="#dff3ea" stroke="#4a5568" stroke-width="1.4" d="M674.34,-209.28C674.34,-209.28 385.92,-209.28 385.92,-209.28 379.92,-209.28 373.92,-203.28 373.92,-197.28 373.92,-197.28 373.92,-153 373.92,-153 373.92,-147 379.92,-141 385.92,-141 385.92,-141 674.34,-141 674.34,-141 680.34,-141 686.34,-147 686.34,-153 686.34,-153 686.34,-197.28 686.34,-197.28 686.34,-203.28 680.34,-209.28 674.34,-209.28"/>
<text xml:space="preserve" text-anchor="middle" x="530.13" y="-183.54" font-family="Architects Daughter" font-size="18.00">CompositeCdoSnapshotRepository</text>
<text xml:space="preserve" text-anchor="middle" x="530.13" y="-158.04" font-family="Architects Daughter" font-size="18.00">primary&#45;first fanout</text>
</g>
<!-- app&#45;&gt;composite -->
<g id="edge1" class="edge">
<title>app&#45;&gt;composite</title>
<path fill="none" stroke="#2563eb" stroke-width="1.8" d="M186.18,-219.36C235.53,-213 301.88,-204.44 363.06,-196.55"/>
<polygon fill="#2563eb" stroke="#2563eb" stroke-width="1.8" points="363.34,-199.34 370.92,-195.54 362.63,-193.79 363.34,-199.34"/>
<text xml:space="preserve" text-anchor="middle" x="296.3" y="-214.52" font-family="Comic Mono" font-size="12.00">persist(commit)</text>
</g>
<!-- primary -->
<g id="node3" class="node">
<title>primary</title>
<path fill="#dbeafe" stroke="#4a5568" stroke-width="1.4" d="M1109.76,-293.28C1109.76,-293.28 876.84,-293.28 876.84,-293.28 870.84,-293.28 864.84,-287.28 864.84,-281.28 864.84,-281.28 864.84,-237 864.84,-237 864.84,-231 870.84,-225 876.84,-225 876.84,-225 1109.76,-225 1109.76,-225 1115.76,-225 1121.76,-231 1121.76,-237 1121.76,-237 1121.76,-281.28 1121.76,-281.28 1121.76,-287.28 1115.76,-293.28 1109.76,-293.28"/>
<text xml:space="preserve" text-anchor="middle" x="993.3" y="-267.54" font-family="Architects Daughter" font-size="18.00">Primary repository</text>
<text xml:space="preserve" text-anchor="middle" x="993.3" y="-242.04" font-family="Architects Daughter" font-size="18.00">Exposed / Redis / Caffeine</text>
</g>
<!-- composite&#45;&gt;primary -->
<g id="edge2" class="edge">
<title>composite&#45;&gt;primary</title>
<path fill="none" stroke="#16a34a" stroke-width="1.8" d="M663.07,-209.9C691.56,-217.4 713.34,-223.14 713.34,-223.14 713.34,-223.14 783.81,-232.23 853.92,-241.28"/>
<polygon fill="#16a34a" stroke="#16a34a" stroke-width="1.8" points="853.26,-244.02 861.55,-242.27 853.97,-238.47 853.26,-244.02"/>
<text xml:space="preserve" text-anchor="middle" x="774.09" y="-240.77" font-family="Comic Mono" font-size="12.00">1. primary persist</text>
</g>
<!-- composite&#45;&gt;primary -->
<g id="edge6" class="edge">
<title>composite&#45;&gt;primary</title>
<path fill="none" stroke="#64748b" stroke-width="1.8" d="M686.99,-189.89C761.56,-196.95 834.84,-203.89 834.84,-203.89 834.84,-203.89 856.24,-211.4 883.26,-220.88"/>
<polygon fill="#64748b" stroke="#64748b" stroke-width="1.8" points="881.98,-223.4 890.45,-223.4 883.83,-218.11 881.98,-223.4"/>
<text xml:space="preserve" text-anchor="middle" x="774.09" y="-206.74" font-family="Comic Mono" font-size="12.00">delegate reads</text>
</g>
<!-- redis -->
<g id="node4" class="node">
<title>redis</title>
<path fill="#fce7f3" stroke="#4a5568" stroke-width="1.4" d="M1084.64,-176.28C1084.64,-176.28 901.97,-176.28 901.97,-176.28 895.97,-176.28 889.97,-170.28 889.97,-164.28 889.97,-164.28 889.97,-120 889.97,-120 889.97,-114 895.97,-108 901.97,-108 901.97,-108 1084.64,-108 1084.64,-108 1090.64,-108 1096.64,-114 1096.64,-120 1096.64,-120 1096.64,-164.28 1096.64,-164.28 1096.64,-170.28 1090.64,-176.28 1084.64,-176.28"/>
<text xml:space="preserve" text-anchor="middle" x="993.3" y="-150.54" font-family="Architects Daughter" font-size="18.00">Secondary projection</text>
<text xml:space="preserve" text-anchor="middle" x="993.3" y="-125.04" font-family="Architects Daughter" font-size="18.00">Redis cache store</text>
</g>
<!-- composite&#45;&gt;redis -->
<g id="edge3" class="edge">
<title>composite&#45;&gt;redis</title>
<path fill="none" stroke="#db2777" stroke-width="1.8" d="M686.94,-163.99C749.81,-159.49 821.01,-154.4 878.82,-150.26"/>
<polygon fill="#db2777" stroke="#db2777" stroke-width="1.8" points="878.96,-153.06 886.74,-149.69 878.56,-147.47 878.96,-153.06"/>
</g>
<!-- kafka -->
<g id="node5" class="node">
<title>kafka</title>
<path fill="#eee7ff" stroke="#4a5568" stroke-width="1.4" d="M1112.76,-68.28C1112.76,-68.28 873.84,-68.28 873.84,-68.28 867.84,-68.28 861.84,-62.28 861.84,-56.28 861.84,-56.28 861.84,-12 861.84,-12 861.84,-6 867.84,0 873.84,0 873.84,0 1112.76,0 1112.76,0 1118.76,0 1124.76,-6 1124.76,-12 1124.76,-12 1124.76,-56.28 1124.76,-56.28 1124.76,-62.28 1118.76,-68.28 1112.76,-68.28"/>
<text xml:space="preserve" text-anchor="middle" x="993.3" y="-42.54" font-family="Architects Daughter" font-size="18.00">Secondary stream</text>
<text xml:space="preserve" text-anchor="middle" x="993.3" y="-17.04" font-family="Architects Daughter" font-size="18.00">Kafka write&#45;only repository</text>
</g>
<!-- composite&#45;&gt;kafka -->
<g id="edge4" class="edge">
<title>composite&#45;&gt;kafka</title>
<path fill="none" stroke="#7c3aed" stroke-width="1.8" d="M644.83,-140.38C712.71,-119.62 798.95,-93.26 868.53,-71.98"/>
<polygon fill="#7c3aed" stroke="#7c3aed" stroke-width="1.8" points="869.24,-74.69 876.07,-69.68 867.6,-69.34 869.24,-74.69"/>
</g>
<!-- consumers -->
<g id="node7" class="node">
<title>consumers</title>
<path fill="#fff2b8" stroke="#4a5568" stroke-width="1.4" d="M1443.93,-68.28C1443.93,-68.28 1238.01,-68.28 1238.01,-68.28 1232.01,-68.28 1226.01,-62.28 1226.01,-56.28 1226.01,-56.28 1226.01,-12 1226.01,-12 1226.01,-6 1232.01,0 1238.01,0 1238.01,0 1443.93,0 1443.93,0 1449.93,0 1455.93,-6 1455.93,-12 1455.93,-12 1455.93,-56.28 1455.93,-56.28 1455.93,-62.28 1449.93,-68.28 1443.93,-68.28"/>
<text xml:space="preserve" text-anchor="middle" x="1340.97" y="-42.54" font-family="Architects Daughter" font-size="18.00">Downstream consumers</text>
<text xml:space="preserve" text-anchor="middle" x="1340.97" y="-17.04" font-family="Architects Daughter" font-size="18.00">replay / audit pipeline</text>
</g>
<!-- kafka&#45;&gt;consumers -->
<g id="edge7" class="edge">
<title>kafka&#45;&gt;consumers</title>
<path fill="none" stroke="#7c3aed" stroke-width="1.8" d="M1124.98,-34.14C1154.44,-34.14 1185.64,-34.14 1214.86,-34.14"/>
<polygon fill="#7c3aed" stroke="#7c3aed" stroke-width="1.8" points="1214.81,-36.94 1222.81,-34.14 1214.81,-31.34 1214.81,-36.94"/>
<text xml:space="preserve" text-anchor="middle" x="1175.39" y="-36.99" font-family="Comic Mono" font-size="12.00">records</text>
</g>
<!-- queries -->
<g id="node6" class="node">
<title>queries</title>
<path fill="#e8f7d4" stroke="#4a5568" stroke-width="1.4" d="M206.67,-155.28C206.67,-155.28 12,-155.28 12,-155.28 6,-155.28 0,-149.28 0,-143.28 0,-143.28 0,-99 0,-99 0,-93 6,-87 12,-87 12,-87 206.67,-87 206.67,-87 212.67,-87 218.67,-93 218.67,-99 218.67,-99 218.67,-143.28 218.67,-143.28 218.67,-149.28 212.67,-155.28 206.67,-155.28"/>
<text xml:space="preserve" text-anchor="middle" x="109.34" y="-129.54" font-family="Architects Daughter" font-size="18.00">JaVers reads</text>
<text xml:space="preserve" text-anchor="middle" x="109.34" y="-104.04" font-family="Architects Daughter" font-size="18.00">query source of truth</text>
</g>
<!-- queries&#45;&gt;composite -->
<g id="edge5" class="edge">
<title>queries&#45;&gt;composite</title>
<path fill="none" stroke="#64748b" stroke-width="1.8" d="M229.88,-136.55C274.56,-142.32 325.97,-148.94 373.43,-155.06"/>
<polygon fill="#64748b" stroke="#64748b" stroke-width="1.8" points="230.27,-133.78 221.98,-135.54 229.55,-139.34 230.27,-133.78"/>
<text xml:space="preserve" text-anchor="middle" x="296.3" y="-154.22" font-family="Comic Mono" font-size="12.00">read methods</text>
</g>
</g>
</svg>
