<?xml version="1.0" encoding="UTF-8" standalone="no"?>
<!DOCTYPE svg PUBLIC "-//W3C//DTD SVG 1.1//EN"
 "http://www.w3.org/Graphics/SVG/1.1/DTD/svg11.dtd">
<!-- Generated by graphviz version 15.0.0 (20260523.1842)
 -->
<!-- Title: exposed_ddd_sequence Pages: 1 -->
<svg width="798pt" height="416pt"
 viewBox="0.00 0.00 798.00 416.00" xmlns="http://www.w3.org/2000/svg" xmlns:xlink="http://www.w3.org/1999/xlink">
<g id="graph0" class="graph" transform="scale(1 1) rotate(0) translate(4 412)">
<title>exposed_ddd_sequence</title>
<!-- client -->
<g id="node1" class="node">
<title>client</title>
<path fill="#e8f3ff" stroke="#9fb2c5" d="M42,-93C42,-93 12,-93 12,-93 6,-93 0,-87 0,-81 0,-81 0,-69 0,-69 0,-63 6,-57 12,-57 12,-57 42,-57 42,-57 48,-57 54,-63 54,-69 54,-69 54,-81 54,-81 54,-87 48,-93 42,-93"/>
<text xml:space="preserve" text-anchor="middle" x="27" y="-69.97" font-family="Helvetica,sans-Serif" font-size="12.00">Client</text>
</g>
<!-- handler -->
<g id="node2" class="node">
<title>handler</title>
<path fill="#eaf7ef" stroke="#9fb2c5" d="M385.75,-283C385.75,-283 265.5,-283 265.5,-283 259.5,-283 253.5,-277 253.5,-271 253.5,-271 253.5,-259 253.5,-259 253.5,-253 259.5,-247 265.5,-247 265.5,-247 385.75,-247 385.75,-247 391.75,-247 397.75,-253 397.75,-259 397.75,-259 397.75,-271 397.75,-271 397.75,-277 391.75,-283 385.75,-283"/>
<text xml:space="preserve" text-anchor="middle" x="325.62" y="-259.98" font-family="Helvetica,sans-Serif" font-size="12.00">OrderCommandHandler</text>
</g>
<!-- client&#45;&gt;handler -->
<g id="edge1" class="edge">
<title>client&#45;&gt;handler</title>
<path fill="none" stroke="#56708c" stroke-width="2" d="M26.5,-93.22C26.5,-140.77 26.5,-265 26.5,-265 26.5,-265 242.19,-265 242.19,-265"/>
<polygon fill="#56708c" stroke="#56708c" stroke-width="2" points="242.19,-267.8 250.19,-265 242.19,-262.2 242.19,-267.8"/>
<text xml:space="preserve" text-anchor="middle" x="143.25" y="-197.2" font-family="Times,serif" font-size="14.00">PlaceOrderCommand</text>
</g>
<!-- query -->
<g id="node8" class="node">
<title>query</title>
<path fill="#f1ecff" stroke="#9fb2c5" d="M373,-93C373,-93 278.25,-93 278.25,-93 272.25,-93 266.25,-87 266.25,-81 266.25,-81 266.25,-69 266.25,-69 266.25,-63 272.25,-57 278.25,-57 278.25,-57 373,-57 373,-57 379,-57 385,-63 385,-69 385,-69 385,-81 385,-81 385,-87 379,-93 373,-93"/>
<text xml:space="preserve" text-anchor="middle" x="325.62" y="-69.97" font-family="Helvetica,sans-Serif" font-size="12.00">OrderQueryService</text>
</g>
<!-- client&#45;&gt;query -->
<g id="edge7" class="edge">
<title>client&#45;&gt;query</title>
<path fill="none" stroke="#56708c" stroke-width="2" d="M54.29,-75C54.29,-75 255,-75 255,-75"/>
<polygon fill="#56708c" stroke="#56708c" stroke-width="2" points="255,-77.8 263,-75 255,-72.2 255,-77.8"/>
<text xml:space="preserve" text-anchor="middle" x="143.25" y="-78.2" font-family="Times,serif" font-size="14.00">findSummary(orderId)</text>
</g>
<!-- store -->
<g id="node3" class="node">
<title>store</title>
<path fill="#ffffff" stroke="#9fb2c5" d="M753.88,-404.73C753.88,-406.53 726.25,-408 692.25,-408 658.25,-408 630.62,-406.53 630.62,-404.73 630.62,-404.73 630.62,-375.27 630.62,-375.27 630.62,-373.47 658.25,-372 692.25,-372 726.25,-372 753.88,-373.47 753.88,-375.27 753.88,-375.27 753.88,-404.73 753.88,-404.73"/>
<path fill="none" stroke="#9fb2c5" d="M753.88,-404.73C753.88,-402.92 726.25,-401.45 692.25,-401.45 658.25,-401.45 630.62,-402.92 630.62,-404.73"/>
<text xml:space="preserve" text-anchor="middle" x="692.25" y="-384.98" font-family="Helvetica,sans-Serif" font-size="12.00">Exposed order table</text>
</g>
<!-- handler&#45;&gt;store -->
<g id="edge2" class="edge">
<title>handler&#45;&gt;store</title>
<path fill="none" stroke="#56708c" stroke-width="2" d="M325.5,-283.44C325.5,-318.22 325.5,-390 325.5,-390 325.5,-390 619.42,-390 619.42,-390"/>
<polygon fill="#56708c" stroke="#56708c" stroke-width="2" points="619.42,-392.8 627.42,-390 619.42,-387.2 619.42,-392.8"/>
<text xml:space="preserve" text-anchor="middle" x="506.88" y="-393.2" font-family="Times,serif" font-size="14.00">insert/update Order</text>
</g>
<!-- audit -->
<g id="node4" class="node">
<title>audit</title>
<path fill="#fce7f3" stroke="#9fb2c5" d="M777.5,-332C777.5,-332 607,-332 607,-332 601,-332 595,-326 595,-320 595,-320 595,-308 595,-308 595,-302 601,-296 607,-296 607,-296 777.5,-296 777.5,-296 783.5,-296 789.5,-302 789.5,-308 789.5,-308 789.5,-320 789.5,-320 789.5,-326 783.5,-332 777.5,-332"/>
<text xml:space="preserve" text-anchor="middle" x="692.25" y="-308.98" font-family="Helvetica,sans-Serif" font-size="12.00">ExposedCdoSnapshotRepository</text>
</g>
<!-- handler&#45;&gt;audit -->
<g id="edge3" class="edge">
<title>handler&#45;&gt;audit</title>
<path fill="none" stroke="#56708c" stroke-width="2" d="M398.25,-271C482.65,-271 610.5,-271 610.5,-271 610.5,-271 610.5,-284.49 610.5,-284.49"/>
<polygon fill="#56708c" stroke="#56708c" stroke-width="2" points="607.7,-284.49 610.5,-292.49 613.3,-284.49 607.7,-284.49"/>
<text xml:space="preserve" text-anchor="middle" x="506.88" y="-317.2" font-family="Times,serif" font-size="14.00">JaVers commit</text>
</g>
<!-- kafka -->
<g id="node5" class="node">
<title>kafka</title>
<path fill="#fff3d9" stroke="#9fb2c5" d="M717.88,-232C717.88,-232 666.62,-232 666.62,-232 660.62,-232 654.62,-226 654.62,-220 654.62,-220 654.62,-208 654.62,-208 654.62,-202 660.62,-196 666.62,-196 666.62,-196 717.88,-196 717.88,-196 723.88,-196 729.88,-202 729.88,-208 729.88,-208 729.88,-220 729.88,-220 729.88,-226 723.88,-232 717.88,-232"/>
<text xml:space="preserve" text-anchor="middle" x="692.25" y="-208.97" font-family="Helvetica,sans-Serif" font-size="12.00">Kafka topic</text>
</g>
<!-- handler&#45;&gt;kafka -->
<g id="edge4" class="edge">
<title>handler&#45;&gt;kafka</title>
<path fill="none" stroke="#56708c" stroke-width="2" d="M398.11,-259C505.03,-259 692.5,-259 692.5,-259 692.5,-259 692.5,-243.33 692.5,-243.33"/>
<polygon fill="#56708c" stroke="#56708c" stroke-width="2" points="695.3,-243.33 692.5,-235.33 689.7,-243.33 695.3,-243.33"/>
<text xml:space="preserve" text-anchor="middle" x="506.88" y="-255.2" font-family="Times,serif" font-size="14.00">OrderPlaced</text>
</g>
<!-- consumer -->
<g id="node6" class="node">
<title>consumer</title>
<path fill="#e9f7f6" stroke="#9fb2c5" d="M406.75,-195C406.75,-195 244.5,-195 244.5,-195 238.5,-195 232.5,-189 232.5,-183 232.5,-183 232.5,-171 232.5,-171 232.5,-165 238.5,-159 244.5,-159 244.5,-159 406.75,-159 406.75,-159 412.75,-159 418.75,-165 418.75,-171 418.75,-171 418.75,-183 418.75,-183 418.75,-189 412.75,-195 406.75,-195"/>
<text xml:space="preserve" text-anchor="middle" x="325.62" y="-171.97" font-family="Helvetica,sans-Serif" font-size="12.00">OrderProjectionEventConsumer</text>
</g>
<!-- consumer&#45;&gt;kafka -->
<g id="edge5" class="edge">
<title>consumer&#45;&gt;kafka</title>
<path fill="none" stroke="#56708c" stroke-width="2" d="M408.5,-206.53C408.5,-206.53 408.5,-214 408.5,-214 408.5,-214 576.96,-214 654.28,-214"/>
<polygon fill="#56708c" stroke="#56708c" stroke-width="2" points="411.3,-206.53 408.5,-198.53 405.7,-206.53 411.3,-206.53"/>
<text xml:space="preserve" text-anchor="middle" x="506.88" y="-193.2" font-family="Times,serif" font-size="14.00">poll event</text>
</g>
<!-- redis -->
<g id="node7" class="node">
<title>redis</title>
<path fill="#ffffff" stroke="#9fb2c5" d="M758,-80.73C758,-82.53 728.53,-84 692.25,-84 655.97,-84 626.5,-82.53 626.5,-80.73 626.5,-80.73 626.5,-51.27 626.5,-51.27 626.5,-49.47 655.97,-48 692.25,-48 728.53,-48 758,-49.47 758,-51.27 758,-51.27 758,-80.73 758,-80.73"/>
<path fill="none" stroke="#9fb2c5" d="M758,-80.73C758,-78.92 728.53,-77.45 692.25,-77.45 655.97,-77.45 626.5,-78.92 626.5,-80.73"/>
<text xml:space="preserve" text-anchor="middle" x="692.25" y="-60.98" font-family="Helvetica,sans-Serif" font-size="12.00">Redis OrderSummary</text>
</g>
<!-- consumer&#45;&gt;redis -->
<g id="edge6" class="edge">
<title>consumer&#45;&gt;redis</title>
<path fill="none" stroke="#56708c" stroke-width="2" d="M401.5,-158.76C401.5,-129.43 401.5,-75 401.5,-75 401.5,-75 615.25,-75 615.25,-75"/>
<polygon fill="#56708c" stroke="#56708c" stroke-width="2" points="615.25,-77.8 623.25,-75 615.25,-72.2 615.25,-77.8"/>
<text xml:space="preserve" text-anchor="middle" x="506.88" y="-131.2" font-family="Times,serif" font-size="14.00">upsert OrderSummary</text>
</g>
<!-- redis&#45;&gt;client -->
<g id="edge9" class="edge">
<title>redis&#45;&gt;client</title>
<path fill="none" stroke="#56708c" stroke-width="2" stroke-dasharray="5,2" d="M626.29,-52.5C458.11,-52.5 26.5,-52.5 26.5,-52.5 26.5,-52.5 26.5,-52.93 26.5,-52.93"/>
<polygon fill="#56708c" stroke="#56708c" stroke-width="2" points="23.7,-45.81 26.5,-53.81 29.3,-45.81 23.7,-45.81"/>
<text xml:space="preserve" text-anchor="middle" x="325.62" y="-3.2" font-family="Times,serif" font-size="14.00">OrderSummary</text>
</g>
<!-- query&#45;&gt;redis -->
<g id="edge8" class="edge">
<title>query&#45;&gt;redis</title>
<path fill="none" stroke="#56708c" stroke-width="2" d="M385.35,-66C385.35,-66 615.01,-66 615.01,-66"/>
<polygon fill="#56708c" stroke="#56708c" stroke-width="2" points="615.01,-68.8 623.01,-66 615.01,-63.2 615.01,-68.8"/>
<text xml:space="preserve" text-anchor="middle" x="506.88" y="-69.2" font-family="Times,serif" font-size="14.00">get summary</text>
</g>
</g>
</svg>
